<svg xmlns="http://www.w3.org/2000/svg" width="360" height="360" viewBox="0 0 100 100">
  <defs>
    <!-- Hex border gradient -->
    <linearGradient id="borderC4" x1="0" x2="1">
      <stop offset="0" stop-color="#d8b4fe" />
      <stop offset="1" stop-color="#a78bfa" />
    </linearGradient>
  </defs>

  <!-- Solid background fill -->
  <polygon points="50,6 80,22 80,58 50,74 20,58 20,22" fill="#222222" />

  <!-- Hex border -->
  <polygon points="50,6 80,22 80,58 50,74 20,58 20,22"
    fill="none" stroke="url(#borderC4)" stroke-width="3" />

  <!-- connecting lines -->
  <line x1="50" y1="32" x2="38" y2="55" stroke="#e9d5ff" stroke-width="1" />
  <line x1="50" y1="32" x2="63" y2="52" stroke="#e9d5ff" stroke-width="1" />

  <!-- tree nodes (non-symmetrical) -->
  <circle cx="50" cy="32" r="4" fill="#a78bfa" /> <!-- root -->
  <circle cx="38" cy="55" r="3" fill="#e9d5ff" /> <!-- left child -->
  <circle cx="63" cy="52" r="3" fill="#e9d5ff" /> <!-- right child -->

  <!-- spark accents -->
  <g transform="translate(70,24) scale(0.6)" fill="#fff">
    <polygon points="0,-3 1,-1 3,0 1,1 0,3 -1,1 -3,0 -1,-1" />
  </g>
  <g transform="translate(32,26) scale(0.4)" fill="#fff" opacity="0.8">
    <polygon points="0,-3 1,-1 3,0 1,1 0,3 -1,1 -3,0 -1,-1" />
  </g>
  <g transform="translate(66,60) scale(0.35)" fill="#fff" opacity="0.7">
    <polygon points="0,-3 1,-1 3,0 1,1 0,3 -1,1 -3,0 -1,-1" />
  </g>
</svg>
